<?xml version="1.0" standalone="no"?>
<!DOCTYPE svg PUBLIC "-//W3C//DTD SVG 20010904//EN"
 "http://www.w3.org/TR/2001/REC-SVG-20010904/DTD/svg10.dtd">
<svg version="1.0" xmlns="http://www.w3.org/2000/svg"
 width="799.000000pt" height="679.000000pt" viewBox="0 0 799.000000 679.000000"
 preserveAspectRatio="xMidYMid meet">

<g transform="translate(0.000000,679.000000) scale(0.100000,-0.100000)"
fill="#000000" stroke="none">
<path d="M2844 6586 c-20 -14 -22 -27 -28 -218 -7 -205 5 -544 25 -716 8 -70
8 -97 -1 -107 -7 -8 -49 -40 -95 -71 l-83 -56 -119 89 c-146 111 -291 216
-321 232 -27 14 -42 7 -42 -19 0 -13 33 -45 93 -91 50 -39 147 -114 213 -167
l122 -95 -62 -75 c-33 -41 -70 -86 -82 -100 l-20 -25 -130 100 c-241 186 -328
236 -349 202 -11 -18 31 -54 221 -190 100 -71 191 -140 202 -152 l21 -23 -43
-84 c-24 -47 -65 -139 -91 -205 l-47 -121 -78 -17 c-98 -22 -180 -73 -249
-157 -61 -73 -90 -128 -122 -230 -21 -67 -24 -94 -24 -255 0 -199 13 -284 66
-435 17 -47 32 -92 35 -100 3 -10 -13 -26 -50 -47 -30 -18 -58 -33 -63 -33 -6
0 -16 19 -23 43 -18 60 -165 207 -246 244 -55 26 -67 28 -194 28 -156 0 -229
-19 -321 -83 -110 -77 -150 -163 -235 -508 -49 -199 -57 -246 -61 -355 -6
-152 2 -184 66 -252 l46 -49 7 -227 c14 -415 51 -618 154 -842 65 -142 66
-162 14 -221 -50 -57 -193 -155 -297 -203 -150 -69 -186 -121 -187 -267 -1
-82 1 -88 30 -125 54 -67 110 -103 160 -103 93 0 198 56 354 190 76 66 220
170 235 170 6 0 48 -34 93 -77 46 -42 168 -141 270 -220 152 -116 212 -155
318 -208 264 -130 505 -188 834 -201 261 -11 496 24 719 105 233 85 482 276
618 474 109 158 201 386 233 574 l12 72 36 5 c20 3 107 13 192 21 281 29 457
62 641 120 153 50 240 97 324 176 55 52 98 80 205 134 136 68 228 123 250 150
7 8 18 15 25 15 7 0 101 -84 209 -186 163 -154 199 -184 211 -174 8 7 15 18
15 25 0 18 -211 241 -297 315 -40 34 -73 66 -73 71 0 11 181 206 192 208 5 1
108 -69 230 -154 204 -143 257 -171 272 -146 14 22 -115 127 -369 299 -44 30
-82 56 -85 59 -2 2 2 14 10 26 8 12 27 45 42 73 l28 51 92 7 c381 28 859 161
1084 302 86 53 154 119 154 148 -1 37 -85 220 -143 309 -111 171 -282 387
-436 552 -107 115 -134 152 -177 248 -207 465 -509 924 -824 1250 -256 264
-483 435 -774 582 -295 149 -558 229 -1078 328 -118 23 -139 31 -320 120 -225
111 -358 164 -518 206 -245 65 -571 101 -616 67z m301 -122 c257 -36 626 -161
905 -308 98 -51 117 -57 290 -91 410 -81 776 -192 1000 -305 135 -68 369 -217
483 -307 96 -77 250 -226 313 -303 29 -36 98 -121 154 -190 160 -197 355 -513
520 -842 60 -120 122 -234 137 -254 15 -19 87 -106 158 -193 308 -373 383
-475 452 -615 23 -49 43 -95 43 -102 0 -18 -107 -89 -194 -129 -250 -114 -516
-184 -898 -238 l-38 -6 0 55 c0 63 -13 94 -39 94 -25 0 -43 -23 -91 -120 -53
-106 -119 -210 -132 -210 -6 0 -54 29 -108 65 -66 45 -102 64 -114 59 -36 -14
-12 -48 77 -109 48 -34 92 -66 98 -72 9 -9 -14 -38 -84 -110 -110 -113 -95
-113 -216 -8 -81 71 -121 84 -121 41 0 -18 22 -43 83 -96 45 -39 82 -77 82
-83 0 -16 -233 -169 -245 -162 -6 3 -10 34 -10 68 0 82 -29 142 -110 230 -130
141 -238 204 -367 214 -118 9 -197 -9 -322 -71 -121 -61 -253 -106 -399 -136
-177 -36 -208 -36 -303 -5 -100 33 -133 49 -260 126 -54 33 -103 59 -111 59
-19 0 -38 -20 -38 -41 0 -25 78 -90 186 -154 52 -31 94 -60 94 -64 0 -4 -5
-12 -11 -18 -9 -9 -8 -18 5 -38 33 -50 45 -50 282 -10 335 57 468 95 644 186
91 47 159 61 232 49 67 -11 160 -43 204 -70 81 -51 148 -163 161 -271 12 -101
-76 -209 -230 -283 -187 -91 -410 -139 -853 -185 -149 -16 -276 -31 -283 -35
-23 -14 -11 -54 25 -84 l35 -29 -20 -80 c-25 -98 -60 -192 -111 -297 -244
-507 -817 -787 -1455 -712 -200 24 -357 65 -565 148 -254 101 -426 214 -631
415 -143 141 -146 143 -190 143 -24 0 -63 -9 -86 -19 -37 -17 -182 -124 -328
-242 -103 -83 -171 -111 -220 -93 -24 10 -45 58 -45 107 0 74 28 102 179 182
155 82 279 176 318 242 16 28 28 66 31 97 3 44 -2 64 -37 140 -52 113 -108
285 -131 406 -32 167 -62 580 -41 580 6 0 45 -11 87 -26 97 -32 167 -31 172 5
5 35 -42 78 -107 97 -78 22 -170 66 -208 98 -40 34 -73 119 -73 189 0 101 117
589 165 691 91 192 398 256 592 124 79 -53 99 -135 77 -304 -29 -222 -61 -322
-155 -485 -27 -48 -49 -94 -49 -104 0 -21 53 -75 74 -75 21 0 64 67 126 195
57 117 83 207 106 365 9 63 18 118 21 123 5 9 148 81 179 91 18 6 26 -3 57
-62 89 -168 174 -242 193 -166 5 18 -9 50 -54 126 -114 193 -178 358 -218 566
-40 210 -28 358 40 497 49 100 122 177 204 217 58 29 76 33 142 32 85 0 144
-22 203 -73 26 -24 43 -53 66 -117 30 -83 53 -224 45 -274 -2 -14 -8 -119 -14
-235 -5 -115 -15 -306 -21 -423 l-11 -213 28 -30 c51 -54 81 -35 90 59 l7 61
63 -50 c69 -55 97 -60 102 -18 3 22 -10 38 -72 94 -94 85 -99 98 -86 259 36
480 34 677 -8 776 -43 100 -177 239 -274 285 l-36 18 18 43 c41 94 123 270
132 279 5 5 35 -17 76 -58 37 -37 73 -67 79 -67 7 0 17 9 23 21 10 18 2 29
-64 98 l-76 78 32 44 c59 82 120 149 137 149 9 0 65 -41 126 -90 103 -85 136
-102 149 -81 12 19 -10 44 -115 132 -60 50 -109 94 -109 97 0 8 90 68 198 132
41 24 76 50 79 57 6 16 -44 73 -63 73 -6 0 -15 19 -18 43 -26 179 -37 831 -13
840 14 6 45 3 202 -19z"/>
<path d="M3035 6419 c-9 -13 2 -438 16 -654 10 -159 10 -160 40 -187 16 -16
33 -28 38 -28 5 0 37 21 71 46 97 71 174 109 350 174 159 58 200 80 200 105 0
21 -82 93 -191 168 -122 84 -278 206 -399 312 -82 72 -111 87 -125 64z m141
-173 c65 -57 392 -306 435 -330 l34 -18 -135 -47 c-140 -49 -215 -84 -310
-145 -38 -24 -57 -31 -61 -23 -7 13 -29 427 -29 540 0 37 4 67 9 67 5 0 31
-20 57 -44z"/>
<path d="M3695 5117 c-136 -35 -261 -126 -328 -238 -61 -104 -80 -180 -76
-312 4 -107 6 -117 41 -188 70 -142 211 -267 346 -309 80 -25 231 -27 317 -5
180 47 335 199 379 371 23 89 21 236 -4 316 -40 129 -150 251 -296 324 l-94
48 -118 3 c-72 1 -136 -2 -167 -10z m364 -310 c55 -36 85 -103 76 -165 -9 -62
-84 -141 -136 -144 -61 -3 -92 2 -128 23 -119 67 -113 235 11 298 56 29 122
24 177 -12z m-350 -304 c18 -21 22 -34 17 -62 -11 -73 -93 -96 -147 -42 -32
32 -35 53 -15 90 31 56 102 63 145 14z"/>
<path d="M2255 4450 c-25 -27 -10 -73 24 -78 63 -9 97 28 67 73 -20 31 -65 33
-91 5z"/>
<path d="M2060 4421 c-24 -45 2 -91 52 -91 28 0 58 28 58 54 0 38 -19 56 -60
56 -29 0 -42 -5 -50 -19z"/>
<path d="M2426 4351 c-25 -27 -17 -63 17 -79 24 -12 31 -11 53 2 29 20 32 56
6 79 -25 22 -55 21 -76 -2z"/>
<path d="M2172 4300 c-65 -40 -91 -125 -58 -189 19 -36 79 -89 110 -97 37 -9
102 14 135 47 70 69 57 185 -26 240 -38 26 -118 25 -161 -1z m128 -55 c33 -17
57 -74 42 -102 -26 -49 -79 -71 -123 -52 -62 25 -74 108 -22 149 30 24 63 25
103 5z"/>
<path d="M1960 4272 c-48 -39 -10 -121 49 -107 29 7 61 39 61 62 0 20 -46 63
-68 63 -11 0 -30 -8 -42 -18z"/>
<path d="M5170 4012 c-96 -27 -167 -68 -241 -142 -109 -109 -153 -229 -147
-404 3 -98 5 -107 47 -191 58 -118 151 -212 271 -274 83 -44 87 -45 195 -49
189 -7 316 39 430 154 267 269 187 707 -160 875 -89 43 -91 43 -210 46 -92 2
-135 -1 -185 -15z m353 -286 c92 -39 132 -147 87 -236 -23 -46 -60 -74 -118
-89 -54 -15 -102 -6 -150 29 -135 98 -66 309 101 310 26 0 62 -6 80 -14z
m-364 -297 c57 -20 75 -95 33 -132 -67 -58 -168 4 -140 86 9 24 28 39 74 57 1
0 15 -5 33 -11z"/>
<path d="M4303 3971 c-72 -33 -83 -66 -71 -206 3 -27 -1 -31 -37 -43 -51 -17
-127 -8 -180 21 -32 18 -48 38 -77 97 -62 122 -98 141 -98 51 0 -49 12 -71 88
-160 l29 -34 -25 -45 c-38 -68 -37 -168 3 -241 49 -90 119 -126 228 -119 72 5
121 26 179 77 l42 38 59 -19 c74 -23 227 -26 227 -4 0 36 -36 59 -103 67 -105
13 -148 30 -194 75 -69 69 -69 154 0 154 87 0 159 53 173 127 6 30 2 48 -22
93 -32 61 -58 78 -131 86 -35 3 -60 -1 -90 -15z m131 -82 c44 -34 33 -89 -25
-119 -26 -15 -66 -2 -89 27 -27 34 -25 59 5 88 30 31 73 32 109 4z m-369 -347
c89 -43 169 -140 134 -163 -28 -17 -105 -10 -140 14 -40 26 -79 98 -79 144 0
41 8 41 85 5z"/>
<path d="M6686 3552 c-3 -5 -24 -103 -46 -218 -44 -223 -83 -376 -124 -490
-32 -87 -32 -95 -3 -122 29 -27 26 -27 171 4 281 60 482 127 636 211 72 40
130 80 130 91 0 23 -85 88 -178 138 -151 80 -282 171 -493 341 -65 52 -83 61
-93 45z m222 -259 c90 -68 210 -146 280 -183 67 -36 122 -68 122 -71 0 -6
-213 -109 -280 -134 -51 -20 -433 -115 -438 -110 -2 2 14 59 36 127 41 127 50
162 77 308 20 111 36 180 41 180 2 0 75 -53 162 -117z"/>
<path d="M1184 3485 c-35 -53 27 -106 81 -71 29 19 32 42 9 74 -22 31 -69 30
-90 -3z"/>
<path d="M1022 3464 c-44 -31 -19 -97 38 -97 56 0 79 54 40 93 -24 24 -48 25
-78 4z"/>
<path d="M1356 3454 c-20 -20 -20 -48 0 -68 24 -24 61 -20 80 9 15 23 15 27 0
50 -19 29 -56 33 -80 9z"/>
<path d="M1183 3351 c-89 -22 -143 -84 -143 -165 0 -50 2 -54 58 -108 66 -66
100 -82 157 -72 54 9 86 26 123 68 109 124 -28 318 -195 277z m136 -100 c25
-23 31 -37 31 -69 0 -33 -6 -45 -32 -67 -29 -24 -38 -27 -92 -23 -49 4 -63 9
-83 32 -40 46 -28 101 30 136 49 30 108 26 146 -9z"/>
<path d="M1462 3324 c-30 -21 -29 -59 3 -80 54 -35 116 18 81 71 -19 29 -51
32 -84 9z"/>
<path d="M5022 2244 c-42 -29 -24 -97 30 -109 21 -5 33 -1 52 19 32 31 33 50
1 81 -28 29 -51 31 -83 9z"/>
<path d="M5227 2188 c-50 -18 -48 -87 2 -108 33 -13 64 -2 81 30 15 28 13 38
-15 65 -27 28 -28 28 -68 13z"/>
<path d="M4942 2079 c-60 -30 -96 -86 -96 -151 0 -49 2 -52 66 -114 59 -58 70
-64 107 -64 23 0 56 6 74 13 44 19 107 91 108 125 3 80 -10 120 -53 158 -62
57 -134 68 -206 33z m146 -69 c58 -35 65 -92 18 -147 -21 -24 -32 -28 -74 -28
-56 0 -82 17 -103 66 -23 57 34 127 106 129 11 0 35 -9 53 -20z"/>
<path d="M5292 2004 c-43 -30 -16 -94 40 -94 30 0 58 28 58 58 0 22 -34 52
-60 52 -9 0 -26 -7 -38 -16z"/>
<path d="M5248 1839 c-26 -15 -22 -56 6 -74 35 -24 76 -5 76 34 0 43 -42 64
-82 40z"/>
<path d="M3017 1534 c-161 -29 -329 -109 -500 -237 -113 -85 -167 -136 -167
-157 0 -21 51 -70 72 -70 9 0 51 29 93 65 213 181 438 287 640 302 89 6 215
-18 300 -58 145 -68 227 -232 182 -364 -56 -162 -241 -279 -543 -341 -51 -11
-149 -18 -279 -21 -110 -2 -210 -6 -222 -9 -32 -6 -31 -53 1 -83 23 -22 32
-23 166 -22 329 4 511 38 708 132 110 53 209 146 254 237 30 60 33 77 36 169
5 127 -9 159 -110 268 -94 101 -197 169 -287 189 -85 19 -237 19 -344 0z"/>
<path d="M3123 1354 c-15 -24 -15 -29 -2 -53 10 -19 24 -27 49 -29 39 -4 60
16 60 58 0 35 -17 50 -57 50 -24 0 -37 -7 -50 -26z"/>
<path d="M3323 1310 c-44 -18 -34 -90 16 -103 57 -14 97 64 49 97 -25 18 -33
19 -65 6z"/>
<path d="M3050 1204 c-75 -32 -110 -86 -110 -167 0 -53 1 -55 58 -110 68 -64
107 -77 177 -57 30 9 58 26 84 55 64 70 67 154 8 222 -58 66 -144 89 -217 57z
m129 -68 c68 -36 80 -106 27 -163 -28 -31 -41 -38 -73 -38 -50 0 -91 27 -109
72 -14 31 -13 38 3 71 18 37 70 72 106 72 10 0 31 -7 46 -14z"/>
<path d="M3405 1136 c-37 -57 43 -118 88 -68 23 25 22 69 -2 82 -33 17 -69 12
-86 -14z"/>
<path d="M3360 950 c-11 -11 -20 -27 -20 -35 0 -20 36 -55 56 -55 32 0 54 20
54 50 0 55 -52 78 -90 40z"/>
<path d="M1020 4968 c-63 -32 -90 -83 -90 -171 0 -49 6 -79 21 -110 29 -57
221 -245 287 -280 63 -34 75 -32 181 38 137 91 211 201 219 330 l5 74 -54 56
c-58 61 -95 85 -131 85 -49 0 -102 -23 -144 -62 l-45 -41 -42 40 c-23 22 -52
46 -64 52 -35 18 -95 13 -143 -11z m161 -97 c24 -15 55 -40 69 -56 46 -50 54
-50 93 9 42 63 81 84 134 70 95 -24 101 -143 14 -262 -30 -40 -183 -162 -204
-162 -19 0 -136 91 -177 137 -53 59 -80 118 -87 188 -5 48 -3 56 20 79 35 35
81 34 138 -3z"/>
</g>
</svg>
