<?xml version="1.0" standalone="no"?>
<!DOCTYPE svg PUBLIC "-//W3C//DTD SVG 20010904//EN"
 "http://www.w3.org/TR/2001/REC-SVG-20010904/DTD/svg10.dtd">
<svg version="1.0" xmlns="http://www.w3.org/2000/svg"
 width="300.000000pt" height="340.000000pt" viewBox="0 0 300.000000 340.000000"
 preserveAspectRatio="xMidYMid meet">
<metadata>
Created by potrace 1.10, written by Peter Selinger 2001-2011
</metadata>
<g transform="translate(0.000000,340.000000) scale(0.100000,-0.100000)"
fill="#000000" stroke="none">
<path d="M1075 3377 c-125 -42 -184 -114 -193 -237 -5 -81 9 -137 51 -192 35
-46 116 -97 157 -98 l25 -1 -25 -17 c-78 -53 -151 -140 -175 -209 l-13 -38
-11 30 c-31 83 -86 145 -160 178 -64 30 -179 30 -237 -1 -89 -46 -135 -132
-142 -268 l-5 -91 -33 -12 c-63 -23 -81 -90 -58 -212 l17 -89 -27 -37 c-15
-21 -73 -105 -128 -187 -107 -159 -129 -216 -94 -241 14 -10 15 -18 6 -41 -25
-65 22 -140 73 -117 17 8 28 7 42 -3 48 -36 120 -4 183 82 26 34 57 67 68 72
12 6 50 37 86 70 51 48 69 59 88 55 16 -3 38 4 62 20 20 14 38 24 40 22 2 -2
107 -8 233 -14 385 -19 382 -18 427 -59 22 -20 60 -64 85 -99 45 -63 45 -64
30 -96 -20 -41 -36 -112 -37 -154 0 -28 -5 -34 -52 -56 -74 -34 -131 -80 -324
-259 -214 -199 -290 -260 -384 -306 -66 -32 -84 -36 -150 -37 -57 0 -83 5
-104 18 -41 27 -55 15 -15 -14 30 -21 45 -24 120 -24 80 0 91 2 170 42 99 49
194 124 379 298 74 70 163 147 196 171 60 43 152 90 160 82 2 -3 -28 -45 -68
-94 -39 -49 -80 -109 -91 -134 -33 -75 -264 -350 -295 -350 -9 0 -36 -9 -59
-20 -41 -18 -62 -52 -55 -87 2 -7 -14 -21 -35 -32 -107 -55 -173 -150 -181
-262 -6 -83 -1 -102 40 -163 66 -100 199 -156 372 -156 144 0 251 33 353 110
164 124 131 288 -87 429 -30 19 -57 37 -59 38 -2 2 3 11 12 21 25 28 21 67 -9
91 l-26 20 89 105 88 106 67 0 c97 0 164 17 203 52 19 16 37 37 40 47 7 22 46
41 87 41 33 0 32 8 11 -88 -4 -18 0 -23 25 -28 l31 -6 -15 -32 c-60 -118 -89
-157 -127 -168 -41 -12 -74 -46 -84 -86 -3 -14 -21 -38 -39 -54 -45 -39 -76
-108 -77 -168 -1 -41 5 -56 29 -87 112 -139 432 -201 653 -126 114 38 218 116
267 198 76 131 12 294 -128 325 -62 14 -154 3 -259 -30 l-64 -20 -28 30 -27
30 50 100 c46 92 53 100 87 109 76 21 83 31 83 131 0 84 2 90 35 140 19 28 40
70 46 93 16 60 7 154 -20 209 -43 91 -155 192 -293 269 -40 21 -47 29 -30 29
12 0 102 14 199 31 166 30 177 31 203 15 36 -20 47 -20 90 2 l34 19 44 -33
c24 -19 75 -43 115 -55 54 -16 83 -32 117 -64 25 -23 58 -51 74 -63 37 -28 91
-29 108 -2 7 11 21 20 31 20 23 0 47 56 40 93 -3 16 -1 27 6 27 18 0 12 58
-10 103 -12 23 -63 82 -113 132 -51 49 -105 109 -121 133 -15 24 -35 46 -43
51 -12 7 -11 15 8 50 26 52 28 86 7 128 -36 69 -95 90 -154 53 -28 -17 -33
-25 -33 -57 0 -21 5 -56 10 -78 11 -48 -2 -66 -59 -84 -43 -12 -91 -61 -91
-92 0 -16 -7 -19 -43 -19 -48 0 -81 -25 -92 -71 -6 -24 -12 -26 -173 -53 -92
-15 -182 -31 -199 -36 -45 -11 -42 3 3 19 95 34 151 127 141 233 -4 51 -2 65
14 88 28 36 36 125 16 171 -20 49 -74 70 -113 44 -33 -21 -54 -72 -54 -130 0
-71 -16 -45 -23 37 -16 183 -117 337 -270 409 -65 30 -170 55 -187 44 -17 -11
-11 5 11 28 31 31 59 99 66 155 12 104 -54 224 -151 274 -51 27 -190 35 -251
15z m225 -38 c97 -44 144 -116 145 -224 0 -74 -22 -133 -68 -182 -15 -17 -17
-23 -6 -24 8 0 6 -4 -6 -9 -18 -8 -18 -9 4 -9 l25 -1 -31 -32 c-17 -18 -38
-47 -46 -64 -24 -46 -28 -148 -10 -219 8 -33 17 -68 18 -78 2 -9 7 -22 10 -27
9 -15 2 -13 -52 14 -92 46 -127 50 -204 26 -38 -13 -69 -26 -69 -31 0 -5 -6
-9 -12 -9 -12 0 -68 -62 -68 -74 0 -3 -5 -17 -11 -33 -10 -27 -11 -27 -25 -9
-9 13 -14 15 -14 6 0 -7 -3 -10 -7 -7 -3 4 -29 -15 -57 -41 -92 -87 -208 -104
-304 -45 -45 28 -47 31 -52 83 -5 52 -7 56 -42 73 l-38 17 0 73 c0 92 20 152
68 204 85 93 242 95 340 5 22 -21 54 -66 70 -100 17 -35 32 -57 35 -50 3 8 6
5 7 -7 0 -12 15 7 38 50 35 66 125 171 165 192 10 5 19 17 21 27 1 10 8 21 15
26 9 5 4 8 -13 8 -39 0 -131 48 -165 87 -39 45 -54 104 -48 188 5 74 34 129
89 170 64 48 220 61 298 26z m227 -508 c44 -32 109 -104 126 -138 17 -37 27
-26 27 28 l0 51 19 -23 c13 -17 16 -29 10 -41 -12 -23 -11 -37 2 -15 15 26 23
21 48 -28 26 -53 30 -69 40 -190 5 -63 9 -76 10 -45 3 38 4 41 11 20 16 -49
11 -69 -18 -84 -38 -20 -142 -105 -142 -116 0 -5 36 15 80 45 99 68 126 71
161 18 21 -32 30 -38 57 -37 26 2 33 -2 38 -22 9 -35 -4 -93 -31 -140 -45 -78
-146 -123 -290 -131 -84 -5 -95 -3 -150 22 -85 40 -163 124 -216 230 -23 47
-40 88 -37 91 4 3 21 -2 40 -11 l33 -16 -33 30 c-38 36 -69 39 -106 10 -34
-27 -33 -42 2 -23 15 7 30 14 33 14 13 0 29 -116 29 -204 0 -113 12 -158 51
-190 45 -39 112 -30 171 21 9 8 30 13 50 11 33 -3 33 -3 -42 -51 -84 -54 -108
-62 -147 -52 -40 10 -97 73 -118 130 -25 68 -39 81 -31 28 3 -24 3 -43 -2 -43
-37 0 -203 155 -238 222 -27 54 -31 121 -10 171 33 80 154 139 238 116 59 -15
105 -40 166 -89 29 -22 52 -39 52 -36 0 2 -11 28 -25 58 -32 69 -65 199 -65
252 0 61 18 113 52 151 40 47 96 49 155 6z m131 -55 c6 -26 -12 -18 -53 25
l-40 41 45 -25 c25 -14 46 -32 48 -41z m353 -272 c36 -43 6 -185 -42 -197 -27
-7 -35 -3 -51 26 -10 20 -10 21 5 9 25 -21 54 -5 71 39 20 50 20 93 1 113 -8
8 -15 17 -15 20 0 12 18 6 31 -10z m-33 -44 c5 -35 -16 -100 -33 -100 -7 0
-17 9 -20 21 -7 20 1 85 12 102 10 16 38 1 41 -23z m678 6 c11 -8 29 -33 39
-55 l18 -41 -30 -60 -30 -60 23 -15 c13 -8 38 -36 56 -62 18 -27 69 -83 115
-126 54 -52 91 -97 109 -132 34 -71 21 -93 -17 -27 -28 50 -66 87 -119 119
-17 9 -30 24 -30 33 0 18 -47 90 -59 90 -5 0 2 -21 15 -47 31 -59 35 -156 7
-146 -16 6 -16 5 -4 -10 10 -13 11 -24 2 -48 -15 -43 -6 -48 14 -9 l17 32 35
-33 c35 -34 83 -116 83 -142 0 -8 -9 -22 -20 -32 -27 -24 -61 -9 -135 61 -46
44 -72 60 -124 76 -108 33 -173 76 -153 101 14 18 23 77 12 77 -6 0 -10 -11
-10 -24 0 -34 -71 -96 -109 -96 -17 0 -33 5 -36 10 -3 6 0 10 8 10 19 0 27 22
27 76 0 57 -28 89 -71 80 -34 -7 -39 10 -11 42 30 36 107 33 153 -5 l34 -28
-23 32 c-13 18 -27 35 -32 38 -34 21 19 89 81 105 52 14 69 41 58 88 -16 67
-11 109 13 126 28 20 67 20 94 2z m-2246 -67 c31 -11 32 -13 26 -56 -3 -24
-12 -56 -21 -73 -19 -37 -11 -56 34 -79 50 -26 73 -54 74 -92 2 -31 -1 -34
-34 -39 -55 -10 -101 -41 -136 -94 -37 -54 -45 -85 -11 -40 95 127 179 144
238 49 12 -19 24 -35 27 -35 11 0 -9 56 -33 93 l-24 37 29 0 c38 0 79 -34 102
-84 30 -67 25 -94 -28 -148 -26 -26 -55 -48 -65 -48 -23 0 -23 0 7 56 26 49
31 74 16 74 -5 0 -12 -17 -16 -37 -5 -31 -25 -55 -97 -125 -50 -48 -99 -90
-109 -93 -10 -3 -41 -35 -68 -70 -61 -78 -89 -97 -132 -93 -70 7 -65 78 13
163 48 53 52 55 69 39 11 -9 19 -13 19 -7 0 5 -9 18 -19 27 -11 10 -29 39 -41
64 -22 47 -23 61 -5 167 5 27 3 26 -14 -10 -11 -22 -20 -50 -20 -63 -1 -12
-21 -47 -45 -77 -25 -30 -57 -75 -71 -100 -21 -35 -30 -43 -40 -35 -29 24 25
122 203 370 58 81 57 77 32 192 -29 133 31 205 140 167z m510 -180 c53 -105
141 -193 250 -250 25 -13 68 -47 95 -75 42 -43 58 -53 98 -58 39 -6 55 -3 90
16 23 13 46 29 50 36 4 6 13 12 19 12 7 0 21 8 32 18 22 19 173 44 302 48 69
3 272 37 349 59 53 15 100 14 116 -2 6 -6 9 -28 7 -49 -3 -41 -11 -46 -113
-57 -89 -10 -281 -50 -307 -63 -31 -16 -29 -35 8 -54 13 -7 24 -16 24 -20 0
-4 -39 -10 -87 -13 -95 -6 -225 -43 -277 -79 -17 -12 -46 -35 -64 -52 l-34
-31 -16 25 c-40 59 -101 127 -138 152 -38 26 -46 28 -239 38 -268 14 -369 21
-374 26 -2 2 2 15 9 28 12 24 10 58 -6 100 -6 16 -3 18 42 12 27 -4 56 -9 64
-11 85 -24 355 -50 364 -36 9 13 -9 17 -179 36 -197 23 -320 50 -345 75 -24
24 -62 40 -96 40 -19 0 -24 5 -24 24 0 22 -39 64 -101 107 -19 13 -20 18 -10
37 l12 22 50 -34 c54 -38 116 -52 176 -41 63 11 136 50 173 91 l35 40 11 -36
c7 -20 22 -56 34 -81z m436 -127 c-3 -3 -6 -1 -6 5 0 6 -11 14 -25 17 -20 5
-25 13 -25 38 l0 31 31 -42 c17 -24 28 -45 25 -49z m-6 -24 c10 -17 17 -43 16
-57 -2 -14 -1 -18 1 -8 10 39 67 -2 61 -45 -2 -18 -10 -24 -35 -26 -18 -2 -42
2 -53 8 -28 15 -50 68 -50 120 0 33 3 40 20 40 12 0 28 -13 40 -32z m59 -17
c16 -16 40 -36 52 -45 22 -15 22 -17 6 -33 -15 -15 -17 -16 -17 -1 0 9 -15 29
-33 45 -29 26 -54 63 -42 63 2 0 18 -13 34 -29z m1443 -94 c36 -26 96 -116
104 -154 6 -31 -9 -73 -26 -73 -5 0 -15 19 -22 42 -7 24 -33 64 -64 97 -45 49
-51 60 -47 88 5 34 7 34 55 0z m-1245 7 c-3 -3 -12 -4 -19 -1 -8 3 -5 6 6 6
11 1 17 -2 13 -5z m-1407 -163 c0 -10 9 -30 20 -44 l21 -26 -47 -43 c-51 -46
-74 -90 -74 -137 0 -35 -12 -45 -45 -37 -30 8 -42 57 -25 101 16 43 133 214
142 208 5 -2 8 -12 8 -22z m1792 -71 c61 -23 172 -114 127 -104 -58 13 -79
-91 -36 -176 40 -80 87 -60 87 37 0 30 -7 70 -15 90 -28 67 10 18 45 -59 59
-128 45 -205 -62 -338 -50 -62 -50 -64 -15 -37 l37 28 0 -75 c0 -87 -6 -94
-100 -122 -59 -17 -211 -17 -229 1 -7 7 -6 24 1 54 10 40 13 43 39 37 35 -7
38 1 7 14 -17 6 -6 9 45 9 37 1 67 5 67 11 0 21 -191 8 -255 -16 -16 -6 -14 0
13 36 17 24 29 46 26 49 -8 8 -53 -47 -73 -92 -18 -37 -18 -37 -36 -17 -42 47
-207 64 -330 36 -33 -8 -61 -14 -62 -13 -1 2 23 32 53 67 79 93 100 139 107
236 6 104 42 188 104 245 107 99 328 147 455 99z m147 -144 c21 -45 26 -137 7
-161 -16 -20 -16 -20 -36 3 -39 46 -51 132 -24 170 19 28 35 24 53 -12z m-650
-513 c-8 -10 -16 -20 -20 -23 -3 -3 -17 -21 -32 -41 -15 -20 -51 -60 -80 -90
-29 -30 -71 -76 -92 -103 -22 -27 -52 -64 -67 -82 -16 -17 -28 -36 -28 -41 0
-6 -20 -20 -44 -32 -37 -19 -52 -22 -100 -16 -54 7 -56 8 -54 36 1 16 5 29 9
29 4 0 47 46 95 103 49 56 99 114 112 128 13 14 39 48 57 75 29 43 38 50 86
60 30 6 80 12 113 13 54 1 57 0 45 -16z m142 -16 c19 -13 34 -31 34 -42 0 -27
-80 -55 -175 -62 -85 -7 -84 -16 -6 80 34 41 44 47 76 47 22 0 51 -9 71 -23z
m379 -126 c0 -4 -13 -34 -29 -67 -15 -32 -32 -70 -36 -84 -4 -14 -16 -37 -26
-52 -11 -14 -19 -31 -19 -37 0 -6 -5 -11 -11 -11 -5 0 -7 -5 -3 -12 5 -7 2 -9
-8 -5 -9 3 -19 3 -23 -1 -10 -11 -77 -1 -92 13 -19 19 -16 49 7 70 22 20 94
139 104 172 6 19 14 21 71 21 36 0 65 -3 65 -7z m325 -202 c49 -12 101 -58
121 -106 60 -143 -81 -323 -296 -379 -86 -23 -262 -23 -350 0 -133 34 -251
112 -265 175 -10 47 13 116 53 155 l35 36 20 -21 c33 -35 117 -63 117 -39 0 6
-5 10 -12 10 -20 0 -76 43 -87 67 -14 30 0 65 34 87 32 21 41 16 23 -13 -11
-17 -10 -23 3 -37 22 -21 86 -35 133 -27 34 5 41 11 57 49 21 45 40 50 59 13
29 -54 -10 -122 -76 -135 -19 -3 -34 -10 -34 -16 0 -9 64 -1 90 12 30 16 52
49 57 88 5 40 6 41 67 56 146 39 183 42 251 25z m-1095 -90 c0 -27 -38 -63
-83 -80 -20 -7 -37 -16 -37 -20 0 -9 81 9 96 22 13 11 61 -20 147 -94 71 -61
89 -93 89 -162 1 -96 -53 -160 -184 -220 -131 -60 -278 -68 -414 -23 -88 29
-141 70 -177 138 -25 47 -28 63 -24 112 9 99 78 217 150 254 27 14 31 14 51
-5 30 -28 70 -41 124 -40 l47 1 -60 14 c-80 19 -105 37 -105 74 0 33 34 75 68
85 22 6 23 5 12 -15 -20 -37 7 -53 97 -58 70 -3 82 -1 113 20 21 14 36 34 39
48 l3 25 24 -28 c13 -16 24 -37 24 -48z"/>
<path d="M862 2470 c0 -14 2 -19 5 -12 2 6 2 18 0 25 -3 6 -5 1 -5 -13z"/>
<path d="M882 2455 c0 -16 2 -22 5 -12 2 9 2 23 0 30 -3 6 -5 -1 -5 -18z"/>
<path d="M1480 2800 c-13 -13 -20 -32 -19 -57 l1 -38 8 34 c12 49 32 66 61 51
24 -13 24 -13 5 9 -24 26 -31 26 -56 1z"/>
<path d="M1552 2663 c-29 -11 -56 -87 -56 -158 -1 -107 55 -207 102 -179 35
21 62 94 62 166 0 121 -47 196 -108 171z m52 -22 c39 -43 58 -163 36 -231 l-8
-25 -1 28 c-1 28 -40 77 -61 77 -6 0 -22 -11 -35 -25 l-25 -24 0 60 c0 64 20
126 47 147 22 16 27 15 47 -7z m-8 -215 c15 -60 -23 -90 -46 -36 -10 24 -10
33 0 45 18 22 39 18 46 -9z"/>
<path d="M1719 2593 c-13 -34 -4 -180 14 -224 11 -28 13 -29 35 -14 36 26 30
125 -8 125 -10 0 -21 -8 -23 -17 -3 -10 -4 18 -4 62 2 76 3 80 24 79 12 0 20
3 17 8 -12 19 -45 7 -55 -19z"/>
<path d="M1844 1635 c-48 -33 -69 -136 -40 -193 37 -71 94 -81 133 -23 42 62
20 190 -36 221 -26 13 -33 13 -57 -5z m88 -62 c24 -54 20 -112 -10 -152 -27
-36 -47 -37 -81 -3 -39 39 -48 90 -26 147 33 88 80 90 117 8z"/>
<path d="M1050 503 c-54 -9 -127 -37 -173 -65 -64 -41 -54 -46 14 -8 106 57
211 70 364 45 17 -2 5 4 -25 15 -51 18 -122 23 -180 13z"/>
</g>
</svg>
