<?xml version="1.0" standalone="no"?>
<!DOCTYPE svg PUBLIC "-//W3C//DTD SVG 20010904//EN"
 "http://www.w3.org/TR/2001/REC-SVG-20010904/DTD/svg10.dtd">
<svg version="1.0" xmlns="http://www.w3.org/2000/svg"
 width="750.000000pt" height="585.000000pt" viewBox="0 0 750.000000 585.000000"
 preserveAspectRatio="xMidYMid meet">

<g transform="translate(0.000000,585.000000) scale(0.100000,-0.100000)"
fill="#000000" stroke="none">
<path d="M4575 5677 c-26 -26 -34 -44 -40 -88 -10 -83 -4 -112 26 -126 37 -18
45 -31 52 -83 l6 -45 -357 0 c-352 0 -768 -19 -787 -36 -5 -5 -26 -9 -47 -9
-88 0 -341 -62 -395 -97 -20 -13 -22 -22 -20 -84 2 -73 0 -70 70 -93 14 -5 16
-13 11 -48 -4 -24 -11 -54 -16 -67 -4 -12 -8 -71 -8 -130 1 -58 -8 -189 -19
-291 -11 -102 -23 -233 -26 -292 l-7 -108 46 0 c28 0 48 5 51 13 2 6 11 100
20 207 8 107 19 229 25 270 5 41 12 117 15 168 7 93 37 225 57 249 15 18 114
17 121 -1 3 -7 22 -16 41 -20 38 -7 50 -26 16 -26 -18 0 -20 -7 -20 -69 0 -68
0 -69 28 -73 15 -2 52 -1 82 2 l55 5 3 73 c2 59 0 72 -13 72 -47 0 36 75 95
85 23 4 43 5 45 3 1 -1 -13 -205 -32 -453 -23 -301 -39 -459 -48 -477 -14 -27
-13 -28 27 -48 23 -11 50 -20 59 -20 10 0 29 -11 43 -25 14 -14 34 -25 46 -25
11 0 22 -6 24 -12 2 -7 19 -65 39 -128 33 -103 38 -133 47 -289 6 -96 7 -178
3 -182 -5 -4 -20 -11 -35 -14 -40 -10 -44 11 -24 114 9 47 16 128 16 180 0 84
-3 101 -33 170 -19 42 -38 90 -43 106 l-9 30 -140 3 c-161 4 -476 -12 -680
-34 -269 -28 -734 -115 -984 -183 l-144 -39 -328 -4 c-180 -1 -331 1 -335 5
-4 4 17 17 47 31 161 71 519 159 924 227 131 22 241 42 243 44 24 23 -525 -71
-774 -133 -403 -101 -559 -174 -614 -287 -26 -53 -27 -42 27 -353 20 -117 33
-215 29 -219 -3 -4 -37 -10 -75 -14 -84 -9 -141 -37 -260 -126 -2 -2 -2 -5 0
-7 2 -3 29 4 59 14 68 22 300 33 300 14 0 -6 -20 -17 -45 -23 -25 -6 -53 -20
-63 -31 -14 -18 -24 -19 -79 -14 -59 6 -63 5 -92 -24 -24 -24 -31 -39 -31 -69
0 -30 -7 -46 -30 -68 -28 -27 -31 -27 -48 -12 -28 26 -48 21 -71 -17 -17 -27
-21 -48 -19 -98 2 -54 -2 -70 -26 -112 -28 -47 -30 -48 -67 -42 -28 5 -38 2
-43 -10 -10 -26 -7 -81 6 -109 9 -21 8 -40 -7 -98 -24 -96 -30 -105 -68 -109
-29 -3 -32 -6 -35 -41 -3 -29 3 -45 22 -68 24 -28 25 -35 19 -107 -8 -97 -16
-119 -53 -140 -27 -15 -30 -22 -30 -68 0 -44 3 -52 25 -64 29 -16 50 -59 59
-121 6 -41 3 -49 -24 -84 -22 -27 -30 -48 -30 -77 0 -35 6 -45 62 -97 l62 -58
-16 -51 c-27 -83 3 -140 100 -191 13 -7 22 -21 22 -35 0 -29 33 -72 71 -91 39
-21 169 -50 317 -73 95 -15 134 -17 173 -9 45 9 57 7 119 -18 60 -24 78 -27
132 -22 52 6 67 12 85 34 19 23 28 26 73 24 64 -3 90 13 115 70 10 24 20 46
22 48 2 3 25 4 53 2 60 -2 75 15 85 104 4 33 16 77 28 98 18 33 25 37 48 32
38 -9 44 6 44 110 1 117 16 160 63 183 32 15 37 22 40 55 4 42 10 45 35 17 20
-24 50 -26 68 -4 12 15 27 16 114 9 151 -13 211 -11 307 10 48 10 90 16 94 13
3 -4 1 -50 -4 -103 -8 -70 -16 -102 -31 -122 -33 -41 -29 -120 9 -168 41 -51
46 -89 21 -155 -36 -94 -24 -173 32 -217 38 -30 45 -50 34 -98 -14 -59 3 -94
60 -131 25 -16 50 -40 55 -55 10 -28 33 -39 189 -88 97 -32 262 -62 273 -50
15 14 54 11 81 -7 39 -25 333 -24 461 1 11 3 29 20 40 40 11 20 26 35 37 35
53 0 107 63 107 127 0 48 12 74 37 84 34 13 53 66 54 151 0 96 24 162 61 166
29 4 38 33 38 133 0 30 5 82 11 115 12 68 57 174 73 174 6 0 29 -6 50 -14 61
-21 90 -6 122 62 40 85 69 100 111 60 l23 -21 23 21 c25 23 54 26 144 16 l53
-7 -6 -37 c-6 -33 -3 -39 26 -60 25 -18 54 -24 145 -33 l114 -11 25 -50 c29
-58 71 -89 142 -107 26 -7 55 -20 64 -29 9 -9 46 -24 83 -33 36 -9 81 -26 100
-37 23 -14 65 -23 135 -30 55 -5 121 -14 145 -21 53 -13 154 -8 218 11 43 12
50 12 99 -9 76 -33 134 -23 157 25 l17 34 73 -6 c90 -8 103 1 134 95 27 83 32
88 63 67 14 -9 32 -16 41 -16 21 0 65 94 65 140 1 43 53 146 72 141 7 -2 21
-6 31 -8 28 -8 50 57 42 126 -4 43 -1 72 17 126 20 62 26 70 50 73 22 3 27 9
33 43 4 25 2 52 -5 70 -15 35 -8 175 9 207 6 11 20 23 30 27 27 8 34 92 9 117
-14 14 -18 36 -20 96 -2 112 -1 123 22 147 32 35 27 81 -16 121 -33 32 -36 39
-41 108 -4 57 -2 85 11 116 22 55 8 100 -42 137 -62 45 -63 48 -56 145 8 102
2 113 -77 154 -26 13 -49 30 -53 39 -10 28 -7 74 7 84 6 6 25 21 40 33 23 19
29 32 30 68 5 132 -180 320 -402 410 -71 28 -85 38 -101 70 -35 69 -103 100
-222 100 -73 0 -86 11 -72 64 5 22 12 26 41 26 69 0 73 7 73 133 0 62 -4 118
-9 126 -8 12 -28 13 -138 2 -185 -19 -175 -24 -189 84 -15 111 -48 297 -63
353 -14 51 -18 167 -7 208 7 28 3 35 -51 91 -51 52 -70 64 -128 82 -87 27
-271 56 -440 70 -71 6 -183 15 -248 21 -65 5 -122 12 -127 15 -11 7 -12 67 -1
105 4 16 15 26 31 29 33 4 40 17 40 75 0 69 -19 123 -53 152 -38 32 -63 30
-102 -9z m90 -24 c21 -20 35 -57 35 -89 0 -23 -2 -24 -70 -24 l-70 0 0 33 c0
46 34 97 64 97 14 0 32 -7 41 -17z m-255 -344 c85 -6 164 -13 175 -14 11 -2
23 -4 28 -4 4 -1 7 -19 7 -40 0 -30 -5 -41 -19 -46 -22 -7 -71 3 -71 15 0 21
-79 32 -250 37 -203 6 -631 -10 -835 -32 -250 -27 -263 -27 -235 -11 24 13
174 48 285 66 51 9 414 30 540 31 39 1 84 5 100 9 17 4 50 5 75 4 25 -2 115
-9 200 -15z m385 -24 c28 -4 66 -17 86 -31 38 -26 51 -28 318 -53 57 -5 109
-15 115 -21 17 -17 -23 -43 -54 -35 -36 8 -314 32 -463 40 -141 8 -126 -1
-142 79 -6 32 2 37 49 32 23 -3 64 -8 91 -11z m-845 -115 c28 -28 28 -95 0
-110 -25 -14 -68 -3 -80 20 -18 33 -12 78 12 94 30 21 44 20 68 -4z m-709 -51
c13 -45 10 -99 -5 -99 -24 0 -49 104 -29 124 12 11 27 0 34 -25z m1273 -51 c3
-29 10 -132 16 -228 6 -96 15 -229 20 -295 27 -353 41 -578 36 -591 -7 -17
-50 -19 -63 -1 -6 7 -15 167 -22 367 -6 195 -16 451 -23 568 -10 183 -10 215
3 223 24 15 27 11 33 -43z m182 2 l41 0 9 -175 c6 -118 13 -178 22 -187 32
-32 264 -17 294 19 9 12 13 55 13 162 0 145 0 146 23 149 33 5 52 -15 52 -55
0 -19 6 -36 14 -39 9 -4 15 -39 20 -132 4 -70 11 -174 16 -232 5 -58 16 -186
25 -285 8 -99 18 -201 21 -227 4 -44 3 -48 -18 -48 -12 0 -32 10 -45 21 -21
20 -34 22 -160 23 -150 1 -173 -6 -232 -69 -13 -14 -34 -25 -47 -25 -33 0 -64
-34 -64 -70 0 -16 -4 -30 -9 -30 -5 0 -11 91 -14 203 -3 111 -8 222 -11 247
-10 87 -25 367 -31 564 l-6 199 23 -7 c13 -3 41 -6 64 -6z m-306 -50 c17 -62
29 -230 30 -396 0 -83 6 -195 14 -250 8 -54 17 -174 20 -266 l6 -168 -76 0
-77 0 25 19 c36 29 62 83 54 114 -5 21 -16 29 -54 40 -46 14 -47 15 -44 52 5
55 -13 89 -75 139 -61 51 -107 63 -203 53 -102 -11 -140 -44 -140 -122 l0 -35
-73 0 c-41 0 -76 2 -78 5 -3 2 -1 41 3 87 35 379 47 572 42 656 l-7 92 179 1
c98 0 188 4 199 9 11 5 70 9 132 9 l112 1 11 -40z m985 -15 c45 -7 68 -21 78
-48 4 -10 14 -97 22 -195 9 -97 27 -265 40 -372 37 -292 36 -278 21 -283 -28
-11 -174 -7 -183 6 -10 12 -28 180 -39 363 -3 49 -10 125 -15 169 -20 171 -32
342 -26 359 5 13 14 16 34 12 16 -3 46 -8 68 -11z m-1171 -736 c55 -55 63 -72
48 -95 -8 -12 -115 3 -165 24 -16 7 -36 12 -46 12 -14 0 -22 12 -30 44 -20 80
-20 79 63 74 l75 -3 55 -56z m-223 12 c17 -57 8 -71 -46 -71 -44 0 -45 1 -45
30 0 33 38 80 64 80 9 0 20 -16 27 -39z m37 -113 c5 -7 33 -58 60 -113 46 -91
58 -129 82 -249 4 -22 4 -87 -2 -145 -8 -90 -14 -114 -40 -157 -40 -66 -94
-124 -118 -124 -24 0 -27 28 -35 249 -3 91 -8 168 -11 173 -3 4 -11 31 -19 60
-7 29 -17 62 -21 72 -7 18 -3 19 59 13 38 -4 67 -2 67 3 0 5 -10 26 -22 47
-43 76 -35 73 -204 73 -84 0 -155 4 -158 8 -2 4 0 29 6 55 l10 47 168 0 c122
0 170 -3 178 -12z m1129 -151 c6 -7 13 -32 15 -57 3 -40 0 -46 -21 -55 -99
-41 -104 -46 -158 -155 -29 -58 -69 -148 -89 -200 -61 -159 -70 -177 -93 -183
-28 -7 -27 9 3 76 13 29 29 71 36 92 7 22 41 114 75 205 34 91 70 187 80 214
26 72 47 89 98 81 23 -4 47 -12 54 -18z m1001 -37 c23 -10 42 -21 42 -24 0 -3
-66 -5 -147 -3 -139 2 -151 1 -193 -22 -136 -72 -303 -237 -362 -360 -17 -36
-84 -190 -149 -341 l-118 -275 -100 -3 -101 -3 0 28 c0 15 7 51 14 78 8 28 37
131 65 230 54 195 157 504 171 519 26 26 15 -21 -54 -225 -71 -215 -137 -448
-151 -535 -6 -40 -5 -41 26 -48 17 -3 46 -6 64 -6 30 0 33 3 38 38 9 50 69
233 112 336 19 47 35 94 35 105 0 11 4 22 9 25 4 3 11 23 15 43 16 99 119 250
237 348 75 63 96 75 127 76 20 0 78 9 127 19 123 25 238 25 293 0z m-2418 -65
c0 -54 22 -49 -315 -70 -326 -20 -715 -52 -802 -65 -37 -5 -135 -19 -218 -31
-134 -18 -301 -48 -362 -65 -31 -8 -31 19 0 38 68 45 360 119 577 148 47 6
146 19 220 30 207 29 546 54 783 58 l117 2 0 -45z m2510 -34 c0 -5 -15 -13
-32 -16 -55 -12 -169 -71 -238 -124 -85 -64 -178 -175 -277 -331 -104 -162
-143 -240 -143 -286 0 -21 -7 -60 -15 -88 -8 -28 -65 -251 -125 -495 -61 -245
-115 -451 -119 -460 -13 -22 -27 10 -47 109 -22 108 -15 162 36 285 22 55 70
204 106 330 36 127 74 260 85 296 10 37 33 84 50 105 17 22 80 121 140 222 59
100 129 208 154 239 90 110 211 191 318 213 59 11 107 12 107 1z m-1869 -153
l89 -12 0 -125 c0 -69 -3 -143 -6 -163 l-7 -38 -166 1 -166 1 115 25 c151 32
174 46 178 103 7 94 -34 157 -106 167 -39 5 -59 24 -46 44 7 11 9 11 115 -3z
m-2591 -82 c-17 -26 -42 -51 -53 -56 -63 -24 -299 -42 -504 -38 -116 1 -215 6
-219 10 -14 15 50 103 83 113 17 6 186 12 378 14 l348 4 -33 -47z m688 -13 c3
-27 -12 -118 -74 -467 -17 -96 -27 -113 -102 -168 -77 -57 -153 -135 -307
-315 -136 -161 -153 -173 -231 -173 -68 0 -60 29 26 91 39 28 70 55 70 59 0
19 105 164 184 255 138 158 183 222 246 350 51 102 110 276 110 323 0 9 -38
12 -157 13 -89 0 -149 4 -138 8 11 5 83 18 160 30 77 12 147 24 155 26 39 8
55 0 58 -32z m-498 -61 c0 -16 -73 -147 -110 -196 -90 -121 -148 -150 -301
-150 -94 0 -111 2 -155 25 -29 15 -55 37 -64 55 -8 16 -18 31 -22 34 -11 9
-49 132 -44 145 3 8 42 14 113 19 130 8 509 55 537 66 27 11 46 12 46 2z
m-838 -74 l78 -12 0 -56 c0 -78 -24 -154 -57 -180 -20 -16 -38 -20 -71 -18
-42 3 -45 5 -57 43 -22 68 -36 194 -25 216 12 22 28 23 132 7z m4907 -106 c22
-11 45 -35 64 -70 l29 -52 -27 -36 c-31 -40 -36 -38 -54 26 -7 24 -28 59 -46
77 -31 31 -37 33 -107 33 -41 0 -98 -7 -127 -16 -29 -8 -56 -13 -59 -10 -13
13 43 55 86 65 64 14 199 4 241 -17z m-2201 -104 c-3 -21 -12 -24 -98 -36 -52
-7 -192 -28 -310 -48 -197 -31 -261 -44 -525 -105 -174 -40 -450 -157 -599
-253 -114 -73 -235 -206 -294 -321 -25 -49 -110 -135 -134 -135 -13 0 -18 8
-18 30 0 17 4 30 9 30 20 0 75 57 123 127 267 397 670 582 1500 689 111 14
228 29 258 34 91 12 92 12 88 -12z m2041 -156 c19 -9 43 -29 53 -43 19 -25 19
-27 2 -62 -10 -20 -24 -37 -31 -37 -7 0 -24 18 -38 40 -13 21 -33 44 -44 50
-29 15 -126 12 -168 -5 -20 -8 -38 -13 -41 -10 -11 11 36 60 69 72 52 18 158
16 198 -5z m-889 -175 c0 -2 -7 -24 -16 -50 -14 -43 -18 -46 -57 -52 -23 -4
-73 -5 -111 -3 l-69 3 -13 50 c-7 28 -13 51 -14 53 0 1 63 2 140 2 77 0 140
-1 140 -3z m1441 -22 c42 -22 123 -118 153 -180 147 -312 119 -767 -66 -1055
-40 -62 -118 -139 -169 -166 -47 -24 -123 -22 -177 5 -150 77 -228 278 -239
623 -7 189 8 323 47 430 63 171 195 340 278 353 20 4 42 8 47 10 18 7 99 -6
126 -20z m-3066 0 c141 -7 454 -44 632 -74 145 -25 193 -55 255 -156 60 -97
95 -226 118 -433 13 -120 14 -521 1 -556 -8 -20 -17 -26 -40 -26 -16 0 -32 4
-36 9 -3 6 4 47 16 93 20 77 21 99 16 308 -4 172 -10 248 -26 325 -40 187 -76
270 -133 305 -43 26 -117 26 -168 0 -49 -25 -52 -25 -94 4 -84 57 -402 106
-685 106 -165 0 -176 -1 -198 -21 -20 -20 -23 -20 -29 -5 -10 25 20 52 110 97
54 27 88 38 105 35 14 -3 85 -8 156 -11z m-2168 -70 c33 -23 55 -92 51 -160
-3 -59 -4 -60 -33 -63 -34 -3 -93 36 -118 78 -18 30 -31 113 -22 140 5 16 15
20 53 20 26 0 57 -7 69 -15z m654 -1 c16 -19 -1 -92 -31 -135 -48 -66 -192
-123 -254 -99 -26 10 -49 69 -61 151 -10 74 -5 79 89 80 44 0 104 4 131 9 82
12 112 11 126 -6z m3033 -73 c3 -5 9 -40 12 -79 l7 -70 71 -7 c39 -3 79 -9 89
-11 32 -10 17 -24 -25 -24 -24 0 -60 -3 -80 -6 -37 -6 -38 -8 -38 -49 0 -23 9
-100 20 -171 11 -71 20 -132 20 -136 0 -4 30 -6 68 -6 42 2 76 -3 92 -12 25
-14 25 -14 -20 -21 -103 -16 -277 -22 -285 -10 -10 17 5 31 41 37 16 3 30 7
33 9 2 2 -6 80 -18 172 -11 92 -21 171 -21 175 0 4 -14 8 -32 10 -42 4 -47 26
-9 39 35 12 35 12 21 93 -5 32 -7 63 -4 67 7 12 51 12 58 0z m926 -21 c28 -15
24 -49 -10 -90 l-29 -35 -23 27 c-50 58 -86 59 -200 3 l-68 -33 7 26 c13 54
44 91 81 101 21 5 46 12 57 15 30 8 163 -2 185 -14z m-4840 -90 c11 -7 3 -10
-28 -10 -37 0 -50 -6 -80 -36 l-35 -35 7 -127 c3 -70 12 -181 20 -247 8 -66
22 -210 32 -320 10 -110 21 -202 25 -205 9 -6 7 -340 -2 -340 -19 0 -29 32
-29 91 0 37 -7 83 -15 102 -18 43 -20 134 -4 139 9 3 8 47 -5 168 -9 91 -20
219 -26 285 -5 66 -14 174 -20 240 -19 204 -13 237 46 284 28 22 88 28 114 11z
m2159 -66 c57 -24 98 -61 130 -118 36 -62 40 -110 12 -126 -28 -15 -46 -4 -60
38 -19 55 -66 125 -101 150 -16 12 -55 28 -86 35 -54 13 -56 14 -39 31 15 14
27 16 64 11 25 -4 62 -13 80 -21z m794 5 c69 -14 82 -30 92 -110 6 -51 4 -59
-19 -85 -17 -20 -26 -24 -26 -14 -6 114 -12 156 -27 167 -25 20 -99 26 -212
20 -121 -7 -199 -25 -270 -63 -54 -27 -84 -29 -89 -3 -2 11 12 23 45 36 68 29
145 53 201 63 60 11 229 5 305 -11z m-2165 -1 c-2 -6 -19 -17 -37 -23 -68 -22
-72 -57 -35 -254 l17 -86 -62 -305 c-33 -168 -61 -317 -61 -331 0 -19 6 -28
21 -32 17 -5 20 -11 15 -29 -3 -13 -6 -43 -6 -66 0 -35 -4 -45 -20 -49 -24 -6
-25 -33 -5 -122 9 -35 14 -65 13 -67 -2 -1 -22 0 -46 3 -35 5 -43 10 -49 31
-13 52 8 228 62 517 103 551 94 485 76 578 l-16 82 -155 11 c-179 13 -260 28
-291 53 -36 29 -15 44 29 22 56 -28 164 -45 291 -45 l114 -1 3 27 c5 49 15 68
42 83 33 18 105 20 100 3z m2084 -195 c4 -2 19 -24 34 -48 l26 -45 -23 -47
-23 -48 -14 50 c-22 77 -33 85 -119 85 -82 0 -213 -29 -277 -62 -23 -12 -72
-45 -110 -75 -74 -57 -109 -65 -114 -26 -2 14 4 26 19 33 12 7 48 34 81 60 49
40 82 55 177 86 139 45 299 62 343 37z m-2607 -47 c81 -14 94 -18 92 -29 -1
-9 35 -13 128 -15 l130 -3 2 -146 c2 -111 -1 -152 -11 -168 -12 -18 -34 -93
-91 -305 -9 -33 -18 -46 -33 -48 -35 -5 -34 30 4 188 41 173 40 200 -9 200
-46 0 -77 10 -77 26 0 20 -8 22 -115 33 l-99 10 -33 -37 c-38 -41 -37 -40 -58
-174 -21 -137 -20 -149 15 -183 17 -16 26 -33 22 -37 -13 -13 -142 2 -142 16
1 6 16 86 34 178 25 130 39 176 59 206 20 28 27 50 27 85 l0 47 -39 0 c-41 0
-51 11 -51 53 0 29 34 83 61 97 29 16 110 28 129 20 8 -4 33 -10 55 -14z
m4513 -50 c2 -32 -1 -63 -5 -67 -5 -5 -36 0 -70 12 -72 24 -78 22 -213 -60
-76 -47 -85 -50 -88 -33 -2 11 3 35 11 53 27 65 241 162 342 155 17 -1 20 -9
23 -60z m-2806 13 c69 -45 139 -128 183 -217 30 -61 35 -82 28 -102 -13 -37
-50 -39 -65 -3 -65 156 -86 191 -144 239 -33 27 -71 56 -84 66 -25 16 -25 16
-5 32 27 21 31 20 87 -15z m-2352 -35 c82 -74 140 -264 84 -272 -19 -3 -25 6
-44 69 -18 60 -30 81 -76 126 -56 56 -66 85 -36 102 25 15 28 14 72 -25z
m2215 -38 c7 -62 -6 -155 -25 -186 -11 -18 -11 -19 -49 62 -19 40 -44 76 -62
89 -30 21 -34 21 -152 10 -648 -65 -668 -65 -675 -14 -3 20 2 21 115 28 151 8
401 30 618 54 248 27 222 32 230 -43z m2189 -154 c2 -4 15 -65 27 -136 12 -70
28 -133 34 -140 7 -7 43 -13 81 -14 37 -1 72 -6 77 -11 16 -16 -140 -46 -238
-46 -89 0 -90 0 -90 25 0 21 6 25 43 32 23 4 46 10 51 13 5 3 -4 54 -20 113
-16 59 -32 117 -35 129 -5 18 -1 25 17 32 30 12 47 13 53 3z m-970 -45 c63
-83 92 -246 83 -472 -13 -332 -99 -625 -219 -749 -79 -82 -122 -77 -165 19
-14 33 -18 78 -21 246 -7 360 38 622 148 856 46 98 77 133 119 133 22 0 37 -9
55 -33z m-259 3 c10 -11 15 -27 12 -37 -3 -10 -15 -42 -25 -72 -22 -59 -26
-57 -51 21 -15 45 -31 51 -102 38 -174 -33 -274 -84 -372 -192 -40 -43 -77
-78 -83 -78 -6 0 -17 7 -24 15 -16 20 2 48 89 134 51 52 88 77 164 114 117 57
186 75 293 76 68 1 84 -2 99 -19z m-939 -142 c164 -158 273 -353 220 -397 -25
-21 -40 -2 -91 106 -59 127 -113 202 -188 263 -31 25 -56 53 -57 62 0 23 10
48 21 48 5 0 48 -37 95 -82z m2913 59 c5 -13 12 -45 16 -70 7 -44 6 -47 -20
-57 -14 -5 -41 -10 -59 -10 -79 0 -135 -28 -215 -108 -42 -42 -99 -111 -125
-152 -27 -41 -53 -79 -58 -84 -4 -6 -8 34 -8 88 l0 98 61 63 c72 75 185 156
255 183 28 10 68 31 89 45 48 33 53 33 64 4z m-5241 -70 c60 -70 132 -177 151
-223 16 -39 0 -84 -29 -84 -21 0 -24 6 -55 92 -10 29 -40 74 -76 113 -32 36
-61 76 -65 90 -7 27 2 75 14 74 4 0 31 -28 60 -62z m302 34 c0 -16 -10 -42
-23 -58 -13 -15 -31 -40 -40 -55 -21 -33 -42 -36 -57 -8 -13 25 4 60 55 113
45 45 65 48 65 8z m997 -154 c21 -18 62 -48 91 -66 28 -18 52 -36 51 -40 -1
-11 -64 -126 -69 -126 -3 0 -38 17 -79 39 l-74 39 7 71 c7 83 15 116 27 116 5
0 26 -15 46 -33z m1860 -109 c7 -12 5 -128 -2 -136 -1 -2 -20 9 -41 23 -74 51
-170 24 -351 -101 -61 -42 -84 -65 -118 -120 -36 -60 -45 -69 -71 -69 -50 0
-43 34 26 124 33 44 81 98 106 119 56 50 158 103 254 132 131 40 184 48 197
28z m2168 -113 c15 -47 25 -88 23 -91 -3 -2 -39 -11 -81 -19 -42 -8 -92 -21
-111 -29 -59 -25 -139 -91 -181 -149 -41 -59 -64 -69 -97 -43 -32 24 -21 56
40 113 94 89 133 119 207 158 50 26 83 52 114 91 24 30 47 54 51 54 5 0 20
-38 35 -85z m-4703 54 c9 -5 25 -9 35 -9 10 0 41 -11 70 -24 37 -18 59 -37 79
-68 29 -46 41 -58 62 -58 10 0 9 5 -2 22 -17 24 -21 65 -8 85 13 20 80 44 107
37 l24 -6 -19 -36 c-23 -43 -25 -77 -5 -112 22 -39 18 -50 -18 -50 -49 0 -224
39 -292 65 -33 12 -67 25 -75 28 -33 11 -100 68 -100 86 0 49 80 71 142 40z
m-323 -62 c1 -10 -16 -41 -38 -70 -21 -29 -41 -60 -44 -70 -5 -12 -15 -17 -29
-15 -50 7 -27 76 56 166 35 38 41 41 47 25 4 -10 8 -26 8 -36z m-237 -154 c12
-15 37 -45 56 -67 38 -43 62 -93 55 -113 -12 -30 -44 -11 -90 55 -26 37 -73
99 -105 137 -53 66 -97 143 -98 173 0 13 140 -130 182 -185z m2196 62 c156
-147 288 -346 262 -394 -23 -45 -60 -14 -108 92 -48 103 -156 233 -249 298
-36 25 -43 35 -43 63 0 64 12 59 138 -59z m2487 -83 c30 -10 50 -23 50 -32 0
-26 -68 -39 -229 -42 -168 -3 -175 -1 -176 49 0 19 7 22 58 28 31 3 64 8 72 9
47 11 180 3 225 -12z m-4165 -32 c14 -26 8 -36 -43 -62 -121 -61 -217 -146
-243 -215 -18 -47 -40 -55 -67 -25 -15 16 -13 22 23 79 48 75 137 156 227 205
79 44 88 45 103 18z m4859 -47 c28 -34 51 -66 51 -71 0 -6 -26 -20 -57 -32
-118 -47 -218 -105 -267 -154 -47 -48 -49 -49 -75 -35 -62 35 -20 90 124 159
l102 50 29 75 c16 41 31 74 35 73 3 -2 29 -31 58 -65z m-2311 -85 c-3 -87 -4
-93 -23 -90 -11 2 -43 4 -71 5 -60 2 -144 -37 -254 -115 -107 -76 -118 -87
-146 -138 -15 -27 -36 -52 -46 -56 -22 -7 -58 21 -58 43 0 8 29 52 66 98 113
146 202 211 394 292 69 28 129 52 133 53 4 0 6 -42 5 -92z m-3087 -96 c73 -48
216 -170 223 -189 14 -37 -30 -45 -60 -12 -10 12 -51 43 -90 70 -52 35 -75 57
-83 81 -6 18 -23 45 -38 60 -37 39 -18 35 48 -10z m703 -16 c20 -46 20 -47 0
-65 -10 -10 -59 -40 -109 -65 -115 -59 -185 -112 -210 -159 -21 -39 -53 -49
-74 -24 -8 11 -2 28 28 74 45 70 64 84 189 147 51 26 95 54 98 64 15 47 36 83
47 79 6 -2 21 -25 31 -51z m1599 -166 c132 -126 209 -223 205 -259 -2 -13 -8
-26 -15 -28 -16 -6 -85 58 -138 127 -24 30 -82 93 -130 140 -83 81 -125 141
-125 175 0 25 75 -33 203 -155z m-1484 -29 c27 -38 26 -48 -7 -79 -15 -15 -37
-40 -48 -55 -22 -32 -106 -64 -189 -74 -61 -7 -52 7 20 31 28 9 71 32 97 51
38 28 51 46 69 95 12 33 25 60 30 60 4 0 17 -13 28 -29z m2261 -66 c0 -62 -1
-66 -27 -77 -165 -67 -281 -137 -375 -225 -37 -35 -69 -63 -72 -63 -23 0 -56
23 -56 39 0 51 229 219 413 304 44 20 82 46 92 61 10 14 19 26 21 26 2 0 4
-29 4 -65z m-2937 -1 c137 -69 199 -106 189 -116 -17 -17 -218 80 -262 127
-32 34 -12 31 73 -11z m2172 -244 c295 -207 321 -230 255 -230 -22 0 -43 12
-73 39 -24 22 -88 71 -143 110 -54 38 -109 77 -121 86 -14 9 -23 26 -23 41 0
29 -6 32 105 -46z m815 -29 c11 -36 11 -43 -8 -73 -32 -51 -47 -61 -159 -107
-139 -56 -273 -87 -273 -62 0 9 69 40 275 125 l100 42 20 57 c11 31 22 57 26
57 3 0 12 -18 19 -39z"/>
<path d="M6175 2804 c-30 -32 -30 -35 -6 -65 64 -83 121 -295 121 -454 0 -106
-39 -273 -83 -361 -19 -38 -58 -98 -86 -133 -56 -68 -58 -85 -18 -128 35 -39
53 -29 122 64 83 113 126 201 167 343 31 108 33 124 33 270 -1 143 -3 161 -28
235 -34 96 -61 144 -117 208 -48 54 -71 58 -105 21z"/>
<path d="M1110 2808 c0 -47 64 -119 90 -103 25 16 -2 106 -35 119 -34 13 -55
7 -55 -16z"/>
<path d="M1630 2811 c-60 -6 -65 -8 -68 -31 -1 -14 7 -40 18 -59 20 -32 23
-33 71 -29 56 6 97 31 117 72 28 56 15 60 -138 47z"/>
<path d="M3906 1878 c-29 -39 -58 -107 -51 -118 16 -25 23 -163 14 -248 -12
-106 -31 -184 -83 -327 -20 -55 -36 -116 -36 -135 0 -43 18 -110 29 -110 11 0
65 111 90 188 55 162 83 305 88 448 6 151 -4 334 -17 334 -5 0 -20 -15 -34
-32z"/>
<path d="M2417 5083 c-4 -4 -4 -88 -1 -187 6 -177 7 -182 33 -209 l26 -28 0
-305 -1 -304 28 0 c15 0 73 5 129 12 l102 11 -6 291 c-6 275 -8 291 -27 306
-14 11 -22 35 -30 88 -16 116 -41 161 -137 252 -80 76 -101 89 -116 73z"/>
</g>
</svg>
