<?xml version="1.0" standalone="no"?>
<!DOCTYPE svg PUBLIC "-//W3C//DTD SVG 20010904//EN"
 "http://www.w3.org/TR/2001/REC-SVG-20010904/DTD/svg10.dtd">
<svg version="1.0" xmlns="http://www.w3.org/2000/svg"
 width="331.000000pt" height="480.000000pt" viewBox="0 0 331.000000 480.000000"
 preserveAspectRatio="xMidYMid meet">

<g transform="translate(0.000000,480.000000) scale(0.100000,-0.100000)"
fill="#000000" stroke="none">
<path d="M2281 4671 l-40 -79 -78 -7 c-43 -4 -82 -9 -87 -12 -4 -3 20 -34 54
-68 l63 -63 -15 -84 c-9 -45 -14 -85 -12 -87 2 -2 38 15 81 37 l78 41 75 -39
c40 -22 75 -38 77 -36 2 2 -2 42 -8 89 l-13 86 63 57 c41 38 58 60 50 65 -6 4
-45 10 -86 14 l-74 7 -39 79 c-22 43 -42 79 -45 79 -3 0 -23 -35 -44 -79z m63
-95 c12 -28 21 -35 55 -41 23 -4 41 -10 41 -14 0 -4 -12 -18 -26 -30 -23 -20
-25 -27 -19 -67 l6 -45 -41 21 -41 21 -36 -22 -36 -22 7 44 c6 40 4 48 -19 69
-14 13 -25 27 -25 30 0 4 17 10 38 14 31 4 41 12 55 41 9 19 19 35 22 35 2 0
11 -15 19 -34z"/>
<path d="M1272 4284 c-45 -89 -37 -84 -159 -100 -29 -4 -53 -9 -53 -13 0 -3
27 -33 61 -67 l60 -61 -15 -83 c-9 -45 -16 -84 -16 -86 0 -2 37 14 82 37 l82
41 78 -41 78 -42 -6 43 c-4 24 -10 63 -15 88 l-8 45 60 60 c32 33 59 63 59 66
0 3 -37 11 -83 18 l-83 13 -41 81 -40 82 -41 -81z m64 -109 c12 -24 26 -35 40
-35 13 0 30 -3 39 -6 14 -6 12 -11 -11 -35 -23 -24 -26 -34 -21 -69 5 -36 3
-41 -11 -35 -67 28 -70 29 -96 12 -36 -24 -39 -22 -33 24 5 37 2 44 -24 67
-34 28 -26 42 24 42 21 0 31 8 44 35 9 19 20 35 23 35 4 0 15 -16 26 -35z"/>
<path d="M2335 3941 c-16 -7 -191 -186 -364 -374 -15 -16 -21 -16 -66 -3 -168
49 -376 15 -558 -91 l-59 -35 -60 27 c-45 20 -70 26 -96 21 -77 -12 -123 -77
-130 -184 l-4 -62 -78 -40 c-191 -100 -351 -289 -415 -490 -12 -37 -33 -71
-64 -105 -120 -126 -193 -261 -233 -425 -6 -25 -14 -103 -18 -175 -6 -114 -11
-139 -38 -203 -47 -109 -65 -208 -65 -352 0 -69 5 -146 11 -172 11 -43 10 -51
-16 -99 -89 -172 18 -501 202 -629 38 -26 46 -39 76 -122 78 -221 129 -291
249 -347 112 -51 191 -64 381 -58 177 5 293 24 468 78 249 77 445 178 574 298
111 102 136 174 108 309 -20 97 -100 328 -183 529 -30 72 -53 134 -50 136 2 3
25 -2 50 -9 66 -20 241 -17 327 5 l69 18 66 -38 c226 -133 468 -175 613 -107
80 37 148 104 186 183 43 87 56 152 49 255 -12 193 -114 369 -277 478 -58 38
-205 181 -304 294 -56 66 -59 71 -73 155 -37 222 -152 481 -289 648 l-45 56
95 248 c59 151 96 262 96 284 0 67 -77 123 -135 98z m15 -165 c-23 -59 -45
-79 -85 -74 -23 3 -21 7 37 71 33 37 62 66 65 64 2 -3 -6 -30 -17 -61z m-62
-148 c-7 -21 -50 -38 -95 -38 -46 0 -48 2 -33 31 9 16 22 19 71 19 44 0 60 -3
57 -12z m-40 -103 c1 -1 -2 -15 -8 -30 -10 -28 -11 -28 -91 -23 -90 5 -112 17
-85 47 15 17 27 18 99 14 45 -3 83 -7 85 -8z m-434 -45 c53 0 63 -14 32 -46
-37 -41 -50 -87 -43 -160 15 -154 120 -237 281 -220 76 8 105 29 131 95 11 28
22 51 25 50 14 -1 81 -107 136 -214 59 -115 133 -319 121 -331 -14 -14 -138
139 -204 251 -19 33 -37 62 -39 64 -2 2 -37 -13 -78 -33 -142 -70 -285 -82
-390 -32 -70 34 -90 54 -189 188 -48 64 -110 142 -139 175 -102 114 -96 97
-44 128 94 55 265 100 340 89 16 -2 43 -4 60 -4z m243 -59 c21 -5 62 -12 91
-16 41 -6 52 -10 48 -22 -3 -8 -6 -19 -6 -23 0 -12 -67 -30 -110 -30 -19 0
-59 11 -89 25 l-54 25 19 23 c26 30 37 38 51 32 6 -2 29 -8 50 -14z m-836 -69
c64 -42 179 -167 299 -326 112 -149 155 -187 258 -227 86 -35 239 -33 342 4
41 15 79 28 84 29 5 2 29 -27 55 -63 72 -103 118 -156 185 -211 33 -28 88 -83
122 -123 34 -39 101 -113 150 -164 81 -85 87 -95 70 -105 -191 -112 -360 -348
-431 -603 -10 -36 -23 -63 -30 -63 -8 0 -49 34 -93 75 l-80 75 -23 -19 -24
-19 25 -28 c14 -15 47 -48 74 -73 l49 -46 -29 -6 c-66 -15 -202 -9 -266 11
-75 23 -112 49 -228 158 -47 44 -86 79 -88 78 -1 -2 16 -43 39 -92 201 -437
369 -888 369 -995 0 -124 -238 -292 -571 -403 -324 -108 -658 -126 -825 -46
-74 36 -117 87 -157 188 -41 103 -44 117 -21 108 8 -3 75 -18 147 -32 149 -29
184 -44 193 -79 6 -24 -11 -90 -40 -157 -19 -44 -21 -43 76 -23 85 18 161 51
227 98 25 19 69 46 98 62 66 35 125 94 155 153 20 40 23 60 21 142 -1 52 -4
108 -5 124 -3 27 0 29 51 42 58 16 284 115 276 122 -2 2 -66 8 -142 12 -85 5
-158 15 -191 26 -29 9 -51 19 -49 21 2 2 30 10 61 18 63 17 227 95 221 105 -2
4 -30 12 -62 19 -83 18 -133 33 -133 40 0 4 50 15 110 25 61 10 110 21 110 25
0 3 -25 21 -54 39 -53 31 -168 114 -194 139 -7 7 -33 29 -57 49 -44 36 -50 54
-17 54 43 1 252 110 252 132 0 4 -31 25 -70 48 -245 143 -422 362 -450 557
-23 165 47 346 193 500 33 35 43 40 59 32 23 -13 41 0 57 40 12 27 9 31 -61
102 -40 41 -85 97 -100 125 -52 97 -72 229 -47 317 8 31 14 37 38 37 15 0 47
-13 72 -28z m743 -52 c47 -24 72 -30 123 -30 71 0 70 3 37 -76 -16 -37 -53
-50 -112 -39 -51 9 -81 31 -98 70 -12 29 -20 105 -11 105 1 0 29 -14 61 -30z
m-948 -197 c12 -50 60 -147 95 -193 19 -25 38 -51 42 -57 5 -8 -19 -45 -62
-99 -226 -279 -248 -551 -67 -822 52 -78 173 -203 257 -264 33 -23 59 -45 59
-49 0 -3 -28 -14 -62 -25 -89 -27 -224 -25 -300 5 -239 93 -401 384 -415 746
-4 117 -2 156 15 239 34 163 125 326 234 419 52 44 176 127 190 127 4 0 11
-12 14 -27z m-527 -990 c76 -345 289 -588 556 -634 67 -11 73 -15 140 -78 39
-37 87 -80 108 -95 20 -16 37 -33 37 -39 0 -6 -35 -8 -97 -5 -74 4 -110 11
-146 28 -26 12 -50 26 -53 31 -3 5 -21 9 -39 9 -47 0 -69 -34 -60 -89 21 -123
131 -265 260 -333 l70 -37 -90 -1 c-271 0 -484 137 -666 430 -228 367 -280
745 -142 1025 14 28 39 71 56 98 l32 47 7 -132 c3 -73 15 -174 27 -225z m2426
-23 c89 -62 160 -141 198 -221 66 -139 74 -272 22 -388 -67 -149 -211 -202
-410 -151 -81 21 -262 102 -304 137 l-24 19 32 95 c55 167 130 294 235 403 55
58 182 150 195 144 3 -2 29 -19 56 -38z m-2580 -678 c135 -282 296 -463 498
-561 105 -52 178 -71 300 -78 l97 -6 15 -50 c29 -96 15 -175 -42 -238 -19 -21
-39 -39 -44 -39 -5 0 -9 20 -9 45 0 127 -86 189 -329 235 -244 47 -353 93
-444 189 -158 166 -233 506 -166 753 l11 43 30 -90 c16 -49 53 -141 83 -203z
m821 -246 c22 -6 60 -28 84 -48 l44 -38 -81 0 -81 0 -31 48 c-45 70 -48 68 65
38z m-974 -143 c56 -127 148 -229 259 -288 95 -50 153 -68 347 -111 173 -38
234 -60 252 -93 15 -28 12 -79 -8 -135 -14 -40 -25 -53 -62 -72 l-45 -24 -6
48 c-4 27 -11 57 -17 68 -31 58 -106 92 -262 119 -105 17 -203 46 -263 76 -86
45 -158 144 -206 287 -19 55 -29 172 -15 172 3 0 15 -21 26 -47z"/>
<path d="M1694 2406 c-16 -13 -17 -18 -6 -33 24 -35 24 -42 -4 -79 -27 -35
-27 -37 -9 -50 27 -20 39 -18 63 16 22 29 52 41 52 20 0 -6 -7 -27 -15 -47 -8
-20 -14 -37 -13 -38 6 -5 47 -25 51 -25 2 0 12 18 22 40 24 53 39 51 31 -4 -7
-41 -5 -44 20 -50 29 -8 44 5 44 36 0 23 11 48 20 48 4 0 10 -19 14 -42 9 -54
11 -56 42 -50 24 4 25 8 22 55 -5 80 17 73 46 -15 6 -19 32 -23 55 -9 11 7 11
15 2 41 -15 45 -14 70 3 70 24 0 29 19 12 46 l-17 24 -41 -21 c-54 -27 -153
-36 -215 -19 -26 8 -70 33 -100 57 -29 24 -54 43 -56 43 -2 0 -12 -6 -23 -14z"/>
<path d="M2798 1864 c-21 -6 -22 -17 -7 -46 9 -16 17 -19 46 -13 44 8 86 -8
103 -41 14 -25 35 -30 59 -15 19 12 7 41 -34 81 -30 29 -42 34 -92 36 -32 2
-66 0 -75 -2z"/>
<path d="M2878 3536 c-40 -80 -33 -77 -155 -92 -29 -4 -53 -9 -53 -13 0 -3 27
-33 60 -66 l60 -61 -15 -79 c-8 -44 -15 -83 -15 -88 0 -4 36 11 80 33 l80 40
81 -40 80 -41 -6 38 c-4 21 -11 60 -16 87 l-10 50 61 61 c33 33 60 63 60 66 0
4 -24 9 -52 13 -119 15 -113 11 -154 92 -20 41 -40 74 -44 74 -3 0 -22 -33
-42 -74z m65 -101 c12 -26 23 -35 41 -35 13 0 32 -3 41 -6 14 -6 12 -11 -11
-36 -23 -23 -28 -36 -25 -69 1 -23 -1 -39 -6 -37 -4 2 -20 10 -36 18 -24 12
-32 11 -64 -4 l-36 -17 6 40 c4 34 1 43 -24 67 -32 31 -25 44 24 44 21 0 31 8
44 35 9 19 20 35 23 35 3 0 14 -16 23 -35z"/>
</g>
</svg>
